<svg width="57" height="57" viewBox="0 0 57 57" fill="none" xmlns="http://www.w3.org/2000/svg">
<path d="M30.9951 46.662H13.1887V19.6384C13.1899 19.4808 13.2331 19.3263 13.314 19.191C13.3949 19.0557 13.5104 18.9445 13.6487 18.8688L29.686 10.1027C29.8209 10.0289 29.9727 9.99153 30.1264 9.99428C30.2801 9.99703 30.4305 10.0398 30.5627 10.1184C30.6948 10.197 30.8042 10.3086 30.8801 10.4424C30.9559 10.5762 30.9956 10.7274 30.9951 10.8811V46.662Z" stroke="#222D39" stroke-width="1.92997" stroke-linecap="round"/>
<path d="M43.4233 46.6627H31.0835V19.1172L43.0075 25.9372C43.135 26.0169 43.2401 26.1278 43.3128 26.2593C43.3856 26.3909 43.4236 26.5388 43.4233 26.6891V46.6627Z" stroke="#222D39" stroke-width="1.92997" stroke-linecap="round"/>
<path d="M25.0509 22.0098H18.8235" stroke="#E98862" stroke-width="1.92997" stroke-linecap="round"/>
<path d="M38.8146 28.6875H35.7009" stroke="#E98862" stroke-width="1.92997" stroke-linecap="round"/>
<path d="M38.8146 32.6602H35.7009" stroke="#E98862" stroke-width="1.92997" stroke-linecap="round"/>
<path d="M38.8146 36.9141H35.7009" stroke="#E98862" stroke-width="1.92997" stroke-linecap="round"/>
<path d="M38.8146 40.877H35.7009" stroke="#E98862" stroke-width="1.92997" stroke-linecap="round"/>
<path d="M25.0509 26.9453H18.8235" stroke="#E98862" stroke-width="1.92997" stroke-linecap="round"/>
<path d="M25.0509 31.8105H18.8235" stroke="#E98862" stroke-width="1.92997" stroke-linecap="round"/>
<path d="M25.0509 36.6758H18.8235" stroke="#E98862" stroke-width="1.92997" stroke-linecap="round"/>
<path d="M25.0509 41.541H18.8235" stroke="#E98862" stroke-width="1.92997" stroke-linecap="round"/>
<path d="M8.5625 46.6621H48.439" stroke="#222D39" stroke-width="1.92997" stroke-linecap="round"/>
</svg>
