<svg width="43" height="43" viewBox="0 0 43 43" fill="none" xmlns="http://www.w3.org/2000/svg">
<g clip-path="url(#clip0_536_1400)">
<path d="M33.2907 17.3242L31.1805 21.2983L26.6672 21.8467L29.979 24.8313L29.3166 29.2465L33.2907 26.7627L37.2648 29.2465L36.6025 24.8313L39.9142 21.8467L35.2778 21.2983L33.2907 17.3242Z" fill="#0CBC8B"/>
<path d="M28.5404 17.8736L33.2907 13.1312L38.0424 17.8762L39.9142 16.0005L33.2907 9.37695L26.6672 16.0005L28.5404 17.8736Z" fill="#E98862"/>
<path d="M28.5404 11.2505L33.2907 6.5081L38.0424 11.2532L39.9142 9.3774L33.2907 2.75391L26.6672 9.3774L28.5404 11.2505Z" fill="#E98862"/>
<path d="M21.3685 39.8447H18.7191V33.2212C18.718 32.1675 18.2989 31.1574 17.5539 30.4123C16.8088 29.6673 15.7987 29.2482 14.745 29.2471H9.44625C8.39261 29.2482 7.38245 29.6673 6.63742 30.4123C5.89238 31.1574 5.47331 32.1675 5.47215 33.2212V39.8447H2.82275V33.2212C2.82482 31.4651 3.52332 29.7816 4.76502 28.5399C6.00671 27.2982 7.69022 26.5997 9.44625 26.5977H14.745C16.5011 26.5997 18.1846 27.2982 19.4263 28.5399C20.668 29.7816 21.3665 31.4651 21.3685 33.2212V39.8447Z" fill="#222D39"/>
<path d="M12.0957 13.3506C12.8817 13.3506 13.65 13.5836 14.3036 14.0203C14.9571 14.457 15.4665 15.0777 15.7673 15.8038C16.068 16.53 16.1467 17.3291 15.9934 18.1C15.8401 18.8709 15.4616 19.579 14.9058 20.1348C14.35 20.6906 13.6419 21.0691 12.871 21.2224C12.1001 21.3757 11.301 21.297 10.5748 20.9963C9.84868 20.6955 9.22801 20.1861 8.79133 19.5326C8.35465 18.879 8.12157 18.1107 8.12157 17.3247C8.12157 16.2707 8.54027 15.2598 9.28556 14.5146C10.0308 13.7693 11.0417 13.3506 12.0957 13.3506ZM12.0957 10.7012C10.7857 10.7012 9.50508 11.0896 8.41585 11.8174C7.32662 12.5452 6.47767 13.5797 5.97635 14.79C5.47504 16.0003 5.34387 17.332 5.59944 18.6168C5.85501 19.9017 6.48584 21.0819 7.41215 22.0082C8.33846 22.9345 9.51866 23.5653 10.8035 23.8209C12.0883 24.0765 13.4201 23.9453 14.6304 23.444C15.8407 22.9427 16.8751 22.0937 17.6029 21.0045C18.3307 19.9153 18.7192 18.6347 18.7192 17.3247C18.7192 16.4549 18.5478 15.5936 18.215 14.79C17.8821 13.9864 17.3942 13.2562 16.7792 12.6411C16.1641 12.0261 15.434 11.5382 14.6304 11.2054C13.8268 10.8725 12.9655 10.7012 12.0957 10.7012Z" fill="#222D39"/>
</g>
<defs>
<clipPath id="clip0_536_1400">
<rect width="42.3904" height="42.3904" fill="white" transform="translate(0.17334 0.103516)"/>
</clipPath>
</defs>
</svg>
