<svg width="47" height="43" viewBox="0 0 47 43" fill="none" xmlns="http://www.w3.org/2000/svg">
<path d="M20.4127 41.6831L20.4146 41.6797H20.4109L20.4127 41.6831Z" fill="#0CBC8B"/>
<path d="M36.5935 40.873C32.1484 40.873 28.5283 37.2543 28.5283 32.8078C28.5283 28.3598 32.1455 24.7411 36.5935 24.7411C41.0416 24.7411 44.6603 28.3598 44.6603 32.8078C44.6606 37.2543 41.0403 40.873 36.5935 40.873Z" fill="#E98862"/>
<path d="M36.9102 28.7309C37.1699 28.7309 37.4041 28.6136 37.6131 28.3747C37.8221 28.1355 37.9248 27.8761 37.9248 27.5958C37.9248 27.3159 37.8455 27.0845 37.689 26.901C37.5307 26.7172 37.3251 26.627 37.0716 26.627C36.8181 26.627 36.5873 26.7551 36.3752 27.0114C36.1643 27.2678 36.0616 27.5309 36.0616 27.803C36.0616 28.0786 36.1376 28.3001 36.2896 28.4727C36.4415 28.6453 36.6489 28.7309 36.9102 28.7309Z" fill="#E98862"/>
<path d="M38.1276 37.3209C37.8315 37.5315 37.5801 37.6375 37.3677 37.6375C37.1571 37.6375 37.0526 37.4571 37.0526 37.096C37.0526 36.9156 37.0687 36.6907 37.0971 36.4201L37.3534 33.4851C37.4641 32.3391 37.5198 31.7248 37.5198 31.6521C37.5198 30.7879 37.233 30.3574 36.6632 30.3574C36.1568 30.3574 35.6439 30.6075 35.1247 31.1046C34.6055 31.6047 34.2112 32.206 33.9406 32.9139L34.3776 33.216C35.0233 32.2521 35.4569 31.7709 35.6756 31.7709C35.8939 31.7709 36.0016 32.0098 36.0016 32.4925C36.0016 32.6714 35.9922 32.8742 35.9717 33.0925L35.6407 36.0273C35.5599 36.8444 35.5206 37.4267 35.5206 37.7719C35.5206 38.1185 35.5997 38.4081 35.758 38.641C35.916 38.8739 36.1885 38.9909 36.5748 38.9909C37.8034 38.9909 38.6961 38.2484 39.2501 36.7638L38.8607 36.4931C38.6673 36.8347 38.4234 37.1106 38.1276 37.3209Z" fill="#E98862"/>
<path d="M20.4127 41.6831L20.4146 41.6797H20.4109L20.4127 41.6831Z" fill="#0CBC8B"/>
<path d="M36.5935 23.1215C34.6402 23.1215 32.823 23.709 31.297 24.7091C29.4608 23.5566 27.4154 22.6187 25.2026 22.0577C28.7181 19.6928 31.1387 15.0326 31.1387 10.8328C31.1387 4.90847 26.3329 0.103516 20.4109 0.103516C14.4873 0.103516 9.68312 4.90717 9.68312 10.8328C9.68312 15.0326 12.1037 19.6928 15.6192 22.0577C7.21292 24.1884 0.986206 31.4861 0.986206 36.8919C0.986206 40.0879 10.6978 41.6836 20.4093 41.682L14.9685 36.2427L19.5496 25.1682H19.5031L17.7228 23.1277C18.5818 23.4365 19.48 23.6232 20.4106 23.6232C21.339 23.6232 22.2359 23.4363 23.0948 23.1293L21.3145 25.1682H21.2711L25.8515 36.2412L20.4125 41.6805C24.2527 41.6805 28.0898 41.4286 31.3318 40.9284C32.8482 41.9129 34.6529 42.4939 36.5935 42.4939C41.9345 42.4939 46.2799 38.1486 46.2799 32.8075C46.2814 27.4668 41.9345 23.1215 36.5935 23.1215ZM36.5935 40.873C32.1484 40.873 28.5283 37.2543 28.5283 32.8078C28.5283 28.3598 32.1455 24.7411 36.5935 24.7411C41.0416 24.7411 44.6603 28.3598 44.6603 32.8078C44.6606 37.2543 41.0403 40.873 36.5935 40.873Z" fill="#222D39"/>
<path d="M36.9102 28.7309C37.1699 28.7309 37.4041 28.6136 37.6131 28.3747C37.8221 28.1355 37.9248 27.8761 37.9248 27.5958C37.9248 27.3159 37.8455 27.0845 37.689 26.901C37.5307 26.7172 37.3251 26.627 37.0716 26.627C36.8181 26.627 36.5873 26.7551 36.3752 27.0114C36.1643 27.2678 36.0616 27.5309 36.0616 27.803C36.0616 28.0786 36.1376 28.3001 36.2896 28.4727C36.4415 28.6453 36.6489 28.7309 36.9102 28.7309Z" fill="#222D39"/>
<path d="M38.1276 37.3209C37.8315 37.5315 37.5801 37.6375 37.3677 37.6375C37.1571 37.6375 37.0526 37.4571 37.0526 37.096C37.0526 36.9156 37.0687 36.6907 37.0971 36.4201L37.3534 33.4851C37.4641 32.3391 37.5198 31.7248 37.5198 31.6521C37.5198 30.7879 37.233 30.3574 36.6632 30.3574C36.1568 30.3574 35.6439 30.6075 35.1247 31.1046C34.6055 31.6047 34.2112 32.206 33.9406 32.9139L34.3776 33.216C35.0233 32.2521 35.4569 31.7709 35.6756 31.7709C35.8939 31.7709 36.0016 32.0098 36.0016 32.4925C36.0016 32.6714 35.9922 32.8742 35.9717 33.0925L35.6407 36.0273C35.5599 36.8444 35.5206 37.4267 35.5206 37.7719C35.5206 38.1185 35.5997 38.4081 35.758 38.641C35.916 38.8739 36.1885 38.9909 36.5748 38.9909C37.8034 38.9909 38.6961 38.2484 39.2501 36.7638L38.8607 36.4931C38.6673 36.8347 38.4234 37.1106 38.1276 37.3209Z" fill="#222D39"/>
</svg>
