<svg width="64" height="44" viewBox="0 0 64 44" fill="none" xmlns="http://www.w3.org/2000/svg">
<path d="M17.909 19.8981C23.1524 19.8981 27.403 15.6475 27.403 10.4041C27.403 5.16075 23.1524 0.910156 17.909 0.910156C12.6656 0.910156 8.41504 5.16075 8.41504 10.4041C8.41504 15.6475 12.6656 19.8981 17.909 19.8981Z" fill="#222D39"/>
<path d="M46.1296 19.8981C51.373 19.8981 55.6235 15.6475 55.6235 10.4041C55.6235 5.16075 51.373 0.910156 46.1296 0.910156C40.8862 0.910156 36.6356 5.16075 36.6356 10.4041C36.6356 15.6475 40.8862 19.8981 46.1296 19.8981Z" fill="#E98862"/>
<path d="M19.974 26.2148V37.7923H15.8441V26.2148C7.31434 27.2351 0.701355 34.4941 0.701355 43.2988H35.1167C35.1167 34.4941 28.5037 27.2351 19.974 26.2148Z" fill="#222D39"/>
<path d="M48.1939 26.2153V37.7927H44.0641V26.2148C40.5524 26.635 37.3659 28.1121 34.8318 30.3196C37.5982 33.9182 39.2459 38.4195 39.2459 43.2992H63.3367C63.3367 34.4945 56.7237 27.2355 48.1939 26.2153Z" fill="#E98862"/>
</svg>
