<svg width="38" height="38" viewBox="0 0 38 38" fill="none" xmlns="http://www.w3.org/2000/svg">
<circle cx="18.5818" cy="19.2977" r="18.5458" fill="#222D39"/>
<path d="M18.5823 21.7265C20.0455 21.7265 21.2316 20.5403 21.2316 19.0771C21.2316 17.6139 20.0455 16.4277 18.5823 16.4277C17.119 16.4277 15.9329 17.6139 15.9329 19.0771C15.9329 20.5403 17.119 21.7265 18.5823 21.7265Z" fill="#E98862"/>
<path d="M27.855 21.7265C29.3182 21.7265 30.5044 20.5403 30.5044 19.0771C30.5044 17.6139 29.3182 16.4277 27.855 16.4277C26.3917 16.4277 25.2056 17.6139 25.2056 19.0771C25.2056 20.5403 26.3917 21.7265 27.855 21.7265Z" fill="#E98862"/>
<path d="M9.30918 21.7265C10.7724 21.7265 11.9586 20.5403 11.9586 19.0771C11.9586 17.6139 10.7724 16.4277 9.30918 16.4277C7.84596 16.4277 6.65979 17.6139 6.65979 19.0771C6.65979 20.5403 7.84596 21.7265 9.30918 21.7265Z" fill="#E98862"/>
</svg>
