<svg width="64" height="43" viewBox="0 0 64 43" fill="none" xmlns="http://www.w3.org/2000/svg">
<path d="M18.0452 19.0914C23.2886 19.0914 27.5392 14.8408 27.5392 9.59748C27.5392 4.35411 23.2886 0.103516 18.0452 0.103516C12.8019 0.103516 8.55127 4.35411 8.55127 9.59748C8.55127 14.8408 12.8019 19.0914 18.0452 19.0914Z" fill="#222D39"/>
<path d="M46.2659 19.0914C51.5092 19.0914 55.7598 14.8408 55.7598 9.59748C55.7598 4.35411 51.5092 0.103516 46.2659 0.103516C41.0225 0.103516 36.7719 4.35411 36.7719 9.59748C36.7719 14.8408 41.0225 19.0914 46.2659 19.0914Z" fill="#222D39"/>
<path d="M20.1102 25.4102V36.9876H15.9804V25.4102C7.45057 26.4304 0.837585 33.6894 0.837585 42.4941H35.253C35.253 33.6894 28.64 26.4304 20.1102 25.4102Z" fill="#222D39"/>
<path d="M48.3301 25.4106V36.988H44.2003V25.4102C40.6887 25.8303 37.5021 27.3074 34.968 29.5149C37.7345 33.1136 39.3821 37.6148 39.3821 42.4945H63.4729C63.4729 33.6898 56.8599 26.4308 48.3301 25.4106Z" fill="#222D39"/>
</svg>
