<svg width="64" height="64" viewBox="0 0 64 64" fill="none" xmlns="http://www.w3.org/2000/svg">
<rect x="8" y="42.668" width="8" height="13.3333" rx="2.66667" stroke="#0CBC8B" stroke-width="4" stroke-linecap="round" stroke-linejoin="round"/>
<path fill-rule="evenodd" clip-rule="evenodd" d="M16 53.3337C16 54.8064 17.1939 56.0003 18.6667 56.0003H28.6827C29.8607 56.0004 30.8992 55.2275 31.2373 54.099L34.4373 46.099C34.6773 45.291 34.792 44.419 34.288 43.7417C33.7867 43.0643 32.8427 42.667 32 42.667H26.6667V36.0883C26.666 34.7962 25.8199 33.6567 24.5832 33.2823C23.3466 32.9079 22.0105 33.3869 21.2933 34.4617L16 42.667V53.3337H16Z" stroke="#0CBC8B" stroke-width="4" stroke-linecap="round" stroke-linejoin="round"/>
<path d="M37.3333 8V18.6667C37.3333 20.1394 38.5272 21.3333 39.9999 21.3333H50.6666" stroke="#222D39" stroke-width="4" stroke-linecap="round" stroke-linejoin="round"/>
<path d="M13.3333 32.2667V13.3333C13.3333 10.3878 15.7211 8 18.6666 8H37.3333L50.6666 21.3333V50.6667C50.6666 53.6122 48.2788 56 45.3333 56H39.1999" stroke="#222D39" stroke-width="4" stroke-linecap="round" stroke-linejoin="round"/>
</svg>
