<svg width="80" height="80" viewBox="0 0 80 80" fill="none" xmlns="http://www.w3.org/2000/svg">
<circle cx="40" cy="40" r="40" fill="#222D39"/>
<g clip-path="url(#clip0_797_3547)">
<path d="M24.523 35.3579H29.1658V53.9293H24.523C24.1125 53.9293 23.7189 53.7662 23.4286 53.476C23.1384 53.1858 22.9753 52.7921 22.9753 52.3817V36.9055C22.9753 36.495 23.1384 36.1014 23.4286 35.8112C23.7189 35.5209 24.1125 35.3579 24.523 35.3579ZM32.7145 33.3568L42.6193 23.452C42.7509 23.32 42.9258 23.24 43.1118 23.2266C43.2977 23.2132 43.4822 23.2675 43.6314 23.3793L44.9515 24.3698C45.3182 24.645 45.5951 25.0226 45.7474 25.4551C45.8997 25.8875 45.9206 26.3553 45.8074 26.7995L44.023 33.8103H53.9277C54.7486 33.8103 55.5359 34.1364 56.1164 34.7168C56.6969 35.2973 57.023 36.0846 57.023 36.9055V40.1617C57.0234 40.5662 56.9445 40.9668 56.7908 41.341L52.0009 52.9713C51.8841 53.2549 51.6856 53.4973 51.4308 53.6679C51.1759 53.8384 50.8761 53.9294 50.5694 53.9293H33.8087C33.3982 53.9293 33.0046 53.7662 32.7143 53.476C32.4241 53.1858 32.2611 52.7921 32.2611 52.3817V34.451C32.2611 34.0405 32.4243 33.647 32.7145 33.3568Z" fill="#E98862"/>
</g>
<defs>
<clipPath id="clip0_797_3547">
<rect width="37.1429" height="37.1429" fill="white" transform="translate(21.4277 21.4297)"/>
</clipPath>
</defs>
</svg>
