<svg width="58" height="58" viewBox="0 0 58 58" fill="none" xmlns="http://www.w3.org/2000/svg">
<g id="form-svgrepo-com 1">
<g id="Group">
<path id="Vector" d="M37.5034 18.6957H45.93C46.0772 18.6999 46.2238 18.6739 46.3607 18.6194C46.4976 18.5649 46.6219 18.4831 46.7261 18.3789C46.8303 18.2747 46.9121 18.1504 46.9666 18.0135C47.0211 17.8766 47.047 17.7301 47.0429 17.5828C47.0525 17.435 47.029 17.2869 46.9739 17.1493C46.9189 17.0118 46.8338 16.8883 46.7249 16.7878L36.2314 6.29435C36.131 6.18544 36.0075 6.10037 35.87 6.04535C35.7324 5.99033 35.5843 5.96676 35.4365 5.97636C35.2892 5.97225 35.1427 5.99823 35.0058 6.0527C34.8689 6.10718 34.7445 6.18901 34.6404 6.29319C34.5362 6.39736 34.4544 6.5217 34.3999 6.65859C34.3454 6.79548 34.3194 6.94204 34.3235 7.08931V15.5159C34.3262 16.3584 34.662 17.1657 35.2578 17.7615C35.8536 18.3573 36.6608 18.6931 37.5034 18.6957Z" fill="#FF6C59"/>
<path id="Vector_2" d="M45.4527 23.466H34.3232C33.059 23.4634 31.8473 22.96 30.9534 22.0661C30.0595 21.1721 29.5561 19.9604 29.5535 18.6962V7.56676C29.5535 7.14509 29.386 6.74068 29.0878 6.44251C28.7896 6.14435 28.3852 5.97684 27.9635 5.97684H12.0643C10.8001 5.97946 9.58842 6.48283 8.69449 7.37677C7.80055 8.27071 7.29718 9.48239 7.29456 10.7466V48.9048C7.29718 50.169 7.80055 51.3806 8.69449 52.2746C9.58842 53.1685 10.8001 53.6719 12.0643 53.6745H42.2729C43.5371 53.6719 44.7487 53.1685 45.6427 52.2746C46.5366 51.3806 47.04 50.169 47.0426 48.9048V25.0559C47.0426 24.8471 47.0015 24.6404 46.9216 24.4475C46.8417 24.2546 46.7246 24.0793 46.5769 23.9317C46.4293 23.784 46.254 23.6669 46.0611 23.587C45.8682 23.5071 45.6615 23.466 45.4527 23.466ZM13.6542 21.8761C13.672 21.4647 13.8467 21.0758 14.1425 20.7893C14.4382 20.5028 14.8325 20.3405 15.2442 20.3358H21.7529C21.9565 20.3345 22.1583 20.3733 22.3469 20.45C22.5355 20.5267 22.7071 20.6398 22.852 20.7828C22.9968 20.9259 23.1121 21.096 23.1912 21.2836C23.2703 21.4712 23.3117 21.6725 23.313 21.8761V23.4561C23.3004 23.8702 23.1296 24.2637 22.8357 24.5558C22.5419 24.8478 22.1472 25.0161 21.733 25.0261H15.2442C15.0369 25.0302 14.8309 24.9923 14.6386 24.9148C14.4463 24.8374 14.2716 24.7219 14.125 24.5753C13.9783 24.4287 13.8628 24.254 13.7854 24.0616C13.7079 23.8693 13.6701 23.6633 13.6741 23.4561L13.6542 21.8761ZM37.5031 42.5152C37.5031 42.9369 37.3356 43.3413 37.0374 43.6395C36.7392 43.9377 36.3348 44.1052 35.9132 44.1052H15.2442C14.8225 44.1052 14.4181 43.9377 14.1199 43.6395C13.8218 43.3413 13.6542 42.9369 13.6542 42.5152V40.9551C13.6542 40.5335 13.8218 40.1291 14.1199 39.8309C14.4181 39.5327 14.8225 39.3652 15.2442 39.3652H35.9132C36.3348 39.3652 36.7392 39.5327 37.0374 39.8309C37.3356 40.1291 37.5031 40.5335 37.5031 40.9551V42.5152ZM40.6829 32.9757C40.6869 33.187 40.6487 33.397 40.5706 33.5933C40.4924 33.7897 40.376 33.9685 40.2279 34.1193C40.0799 34.2701 39.9033 34.3899 39.7084 34.4716C39.5135 34.5534 39.3043 34.5955 39.093 34.5954H15.2442C14.8225 34.5954 14.4181 34.4279 14.1199 34.1298C13.8218 33.8316 13.6542 33.4272 13.6542 33.0055V31.4156C13.6542 30.9939 13.8218 30.5895 14.1199 30.2914C14.4181 29.9932 14.8225 29.8257 15.2442 29.8257H39.093C39.5147 29.8257 39.9191 29.9932 40.2173 30.2914C40.5154 30.5895 40.6829 30.9939 40.6829 31.4156V32.9757Z" fill="#222D39"/>
</g>
</g>
</svg>
