<svg width="42" height="42" viewBox="0 0 42 42" fill="none" xmlns="http://www.w3.org/2000/svg">
<g clip-path="url(#clip0_531_1177)">
<path d="M14.1297 21.8903C14.1297 21.2767 13.6323 20.7793 13.0188 20.7793H8.57485C7.96131 20.7793 7.46387 21.2767 7.46387 21.8903V26.3342C7.46387 26.9477 7.96131 27.4452 8.57485 27.4452H13.0188C13.6323 27.4452 14.1297 26.9477 14.1297 26.3342V21.8903ZM9.68583 23.0013H11.9078V25.2232H9.68583V23.0013Z" fill="#E98862"/>
<path d="M23.4342 21.8903C23.4342 21.2767 22.9367 20.7793 22.3232 20.7793H17.8793C17.2658 20.7793 16.7683 21.2767 16.7683 21.8903V26.3342C16.7683 26.9477 17.2658 27.4452 17.8793 27.4452H22.3232C22.9367 27.4452 23.4342 26.9477 23.4342 26.3342V21.8903ZM18.9903 23.0013H21.2122V25.2232H18.9903V23.0013Z" fill="#E98862"/>
<path d="M32.7386 21.8903C32.7386 21.2767 32.2412 20.7793 31.6277 20.7793H27.1837C26.5702 20.7793 26.0728 21.2767 26.0728 21.8903V26.3342C26.0728 26.9477 26.5702 27.4452 27.1837 27.4452H31.6277C32.2412 27.4452 32.7386 26.9477 32.7386 26.3342V21.8903ZM28.2947 23.0013H30.5167V25.2232H28.2947V23.0013Z" fill="#E98862"/>
<path d="M40.8395 31.0551H37.3215V18.5565H38.5915C38.9156 18.5565 39.2236 18.4225 39.4346 18.1767C39.6195 17.9611 39.7138 17.6877 39.7012 17.4071C39.6998 17.3625 39.6965 17.3196 39.6895 17.275L37.5342 3.24987C37.4509 2.70785 36.9846 2.30859 36.4362 2.30859H4.13664C3.59087 2.30859 3.12607 2.70494 3.03969 3.24376L0.791759 17.2699C0.784538 17.3149 0.780927 17.3599 0.779261 17.4051C0.764957 17.6866 0.858418 17.9573 1.04326 18.1741C1.25434 18.4216 1.56333 18.5567 1.88871 18.5567H2.88123V35.638C2.88123 36.2515 3.42492 36.749 4.03846 36.749H6.64787C7.08699 38.8008 8.91358 40.3445 11.0947 40.3445C13.2758 40.3445 15.1024 38.801 15.5417 36.749H24.8866C25.3257 38.8008 27.1523 40.3445 29.3334 40.3445C31.5145 40.3445 33.3411 38.801 33.7802 36.749H36.2567C36.8703 36.749 37.3215 36.2515 37.3215 35.638V33.2772H40.8395C41.4531 33.2772 41.9505 32.7797 41.9505 32.1662C41.9505 31.5526 41.4531 31.0551 40.8395 31.0551ZM31.6594 35.7963C31.6594 37.0789 30.6159 38.1224 29.3332 38.1224C28.0506 38.1224 27.0071 37.0789 27.0071 35.7963C27.0071 34.5137 28.0506 33.4702 29.3332 33.4702C30.6159 33.4702 31.6594 34.5135 31.6594 35.7963ZM13.4207 35.7963C13.4207 37.0789 12.3772 38.1224 11.0946 38.1224C9.81194 38.1224 8.76846 37.0789 8.76846 35.7963C8.76846 34.5137 9.81194 33.4702 11.0946 33.4702C12.3773 33.4702 13.4207 34.5135 13.4207 35.7963ZM5.10306 18.5565H35.0995V34.5269H33.6998C33.1489 32.635 31.4005 31.2482 29.3334 31.2482C27.2661 31.2482 25.5177 32.635 24.967 34.5269H15.4613C14.9104 32.635 13.162 31.2482 11.0948 31.2482C9.02759 31.2482 7.27919 32.635 6.72842 34.5269H5.10306V18.5565ZM35.4829 4.53041L35.8587 7.03012H4.69185L5.08375 4.53041H35.4829ZM37.2966 16.3346H3.19175L3.64809 13.5571H36.8593L37.2966 16.3346ZM36.5178 11.3352H4.0043L4.33815 9.25208H36.1977L36.5178 11.3352Z" fill="#222D39"/>
</g>
<defs>
<clipPath id="clip0_531_1177">
<rect width="41.1728" height="41.1728" fill="white" transform="translate(0.777588 0.738281)"/>
</clipPath>
</defs>
</svg>
