<svg width="40" height="42" viewBox="0 0 40 42" fill="none" xmlns="http://www.w3.org/2000/svg">
<g clip-path="url(#clip0_531_1154)">
<path d="M6.85635 41.5883H33.7183V28.7218H6.85635V41.5883ZM23.2045 30.6951C23.4985 30.6951 23.758 30.8593 23.8876 31.0928C23.905 31.1187 23.9222 31.1448 23.9481 31.1707C24.1038 31.3263 24.3546 31.3263 24.5016 31.1707C24.5275 31.1448 24.5449 31.1187 24.5621 31.0928C24.467 31.7587 23.8961 32.2688 23.2043 32.2688C22.772 32.2688 22.4175 31.9143 22.4175 31.482C22.4175 31.0497 22.7721 30.6951 23.2045 30.6951ZM21.5096 33.315C21.5788 32.8394 21.9853 32.4676 22.4868 32.4676H23.9915C24.4844 32.4676 24.8995 32.8394 24.9687 33.315L25.2714 35.8225C25.2973 36.0128 25.159 36.1857 24.9687 36.2031C24.7784 36.229 24.6055 36.0906 24.5883 35.9004L24.3029 33.5744C24.2943 33.5312 24.251 33.4966 24.2079 33.4966C24.1559 33.4966 24.1128 33.5399 24.1128 33.5917C24.1128 33.6003 24.1128 33.6089 24.1128 33.6089C24.1128 33.6089 24.3118 35.2604 24.3203 35.295C24.329 35.3383 24.329 35.3815 24.329 35.4246V39.6183C24.329 39.9123 24.1128 40.1544 23.8362 40.1544C23.568 40.1544 23.3433 39.9123 23.3433 39.6183V36.2029C23.3433 36.151 23.3 36.1079 23.2482 36.1079C23.1963 36.1079 23.1532 36.1511 23.1532 36.2029V39.6096C23.1532 39.9036 22.937 40.1457 22.6603 40.1457C22.3922 40.1457 22.1675 39.9036 22.1675 39.6096V35.4161C22.1675 35.3729 22.1675 35.3296 22.1762 35.2865C22.1762 35.2519 22.3837 33.6003 22.3837 33.6003C22.3837 33.6003 22.3837 33.5917 22.3837 33.5831C22.3837 33.5312 22.3404 33.4881 22.2886 33.4881C22.2368 33.4881 22.2021 33.5227 22.1936 33.5659L21.9169 35.8919C21.8823 36.0908 21.7094 36.2291 21.5191 36.2031C21.3288 36.1772 21.1992 36.0128 21.2164 35.8225L21.5096 33.315ZM20.2063 36.471C20.4594 36.471 20.6645 36.6762 20.6645 36.9292C20.6645 37.1822 20.4593 37.3874 20.2063 37.3874C19.9531 37.3874 19.748 37.1822 19.748 36.9292C19.748 36.6762 19.9531 36.471 20.2063 36.471ZM19.3155 37.9669C19.2896 37.7249 19.4797 37.5172 19.7219 37.5087H20.6904C20.9325 37.5174 21.1315 37.7249 21.1315 37.9669V38.5982C21.1315 38.6932 21.0536 38.7624 20.9585 38.7624C20.8635 38.7624 20.7856 38.6845 20.7856 38.5982V38.0708C20.7856 38.0362 20.7597 38.0189 20.7252 38.0189C20.6906 38.0189 20.6732 38.0448 20.6732 38.0708V39.9471C20.6732 40.0595 20.5867 40.146 20.4742 40.146C20.3618 40.146 20.2753 40.0595 20.2753 39.9471V38.9959C20.2753 38.9613 20.2494 38.944 20.2233 38.944C20.1887 38.944 20.1713 38.9698 20.1713 38.9959V39.9471C20.1713 40.0595 20.0848 40.146 19.9724 40.146C19.8599 40.146 19.7734 40.0595 19.7734 39.9471V38.0708C19.7734 38.0362 19.7475 38.0189 19.7215 38.0189C19.6869 38.0189 19.661 38.0448 19.661 38.0708V38.5982C19.661 38.6932 19.5831 38.7624 19.4881 38.7624C19.393 38.7624 19.3151 38.6845 19.3151 38.5982L19.3155 37.9669ZM17.2637 30.6518C17.6983 30.6518 18.0505 31.004 18.0505 31.4386C18.0505 31.8732 17.6983 32.2254 17.2637 32.2254C16.829 32.2254 16.4768 31.8732 16.4768 31.4386C16.4768 31.004 16.829 30.6518 17.2637 30.6518ZM16.2691 32.433H18.2408C18.7856 32.433 19.2267 32.874 19.2267 33.4188V35.8312C19.2267 36.0215 19.071 36.177 18.8807 36.177C18.6819 36.177 18.5349 36.0213 18.5349 35.8312V33.6175C18.5349 33.5656 18.4916 33.5225 18.4398 33.5225C18.3878 33.5225 18.3447 33.5658 18.3447 33.6175V39.6096C18.3447 39.9036 18.1286 40.1457 17.8519 40.1457C17.5752 40.1457 17.359 39.9036 17.359 39.6096V36.1942C17.359 36.1423 17.3158 36.0992 17.264 36.0992C17.212 36.0992 17.1689 36.1424 17.1689 36.1942V39.6096C17.1689 39.9036 16.9527 40.1457 16.6761 40.1457C16.3994 40.1457 16.1832 39.9036 16.1832 39.6096V33.6175C16.1832 33.5656 16.14 33.5225 16.0882 33.5225C16.0364 33.5225 15.9931 33.5658 15.9931 33.6175V35.8398C15.9931 36.03 15.8374 36.1855 15.6473 36.1855C15.4483 36.1855 15.3013 36.0299 15.3013 35.8398V33.4188C15.2834 32.874 15.733 32.433 16.2691 32.433ZM36.6716 21.9549L39.7093 18.7035L31.1447 10.9085V1.86305H26.1583V6.32322L20.3636 1.0293L0.894775 18.4534L3.85474 21.7881L6.85635 19.0787V25.9877H33.7183V19.2455L36.6716 21.9549ZM22.8828 15.0945C23.1768 15.0945 23.4363 15.2587 23.5659 15.4922C23.5833 15.5181 23.6005 15.5441 23.6264 15.57C23.7821 15.7257 24.0329 15.7257 24.1799 15.57C24.2058 15.5441 24.2232 15.5181 24.2404 15.4922C24.1453 16.158 23.5744 16.6682 22.8826 16.6682C22.4503 16.6682 22.0958 16.3137 22.0958 15.8814C22.0958 15.4491 22.4504 15.0945 22.8828 15.0945ZM19.8846 20.8704C20.1377 20.8704 20.3428 21.0756 20.3428 21.3286C20.3428 21.5816 20.1376 21.7868 19.8846 21.7868C19.6314 21.7868 19.4263 21.5816 19.4263 21.3286C19.4263 21.0756 19.6314 20.8704 19.8846 20.8704ZM16.942 15.0512C17.3766 15.0512 17.7288 15.4034 17.7288 15.838C17.7288 16.2726 17.3766 16.6248 16.942 16.6248C16.5073 16.6248 16.1551 16.2726 16.1551 15.838C16.1551 15.4034 16.5073 15.0512 16.942 15.0512ZM18.905 20.2304C18.905 20.4207 18.7493 20.5762 18.559 20.5762C18.3602 20.5762 18.2132 20.4205 18.2132 20.2304V18.0169C18.2132 17.965 18.1699 17.9219 18.1181 17.9219C18.0661 17.9219 18.023 17.9651 18.023 18.0169V24.009C18.023 24.303 17.8069 24.5451 17.5302 24.5451C17.2535 24.5451 17.0373 24.303 17.0373 24.009V20.5936C17.0373 20.5417 16.9941 20.4986 16.9423 20.4986C16.8903 20.4986 16.8472 20.5418 16.8472 20.5936V24.009C16.8472 24.303 16.631 24.5451 16.3544 24.5451C16.0777 24.5451 15.8615 24.303 15.8615 24.009V18.0169C15.8615 17.965 15.8183 17.9219 15.7665 17.9219C15.7147 17.9219 15.6714 17.9651 15.6714 18.0169V20.2391C15.6714 20.4294 15.5157 20.5849 15.3256 20.5849C15.1266 20.5849 14.9796 20.4292 14.9796 20.2391V17.8181C14.9622 17.2734 15.412 16.8324 15.9481 16.8324H17.9198C18.4646 16.8324 18.9056 17.2734 18.9056 17.8181L18.905 20.2304ZM20.8098 22.9974C20.8098 23.0924 20.7319 23.1616 20.6368 23.1616C20.5418 23.1616 20.4639 23.0838 20.4639 22.9974V22.47C20.4639 22.4354 20.438 22.4181 20.4035 22.4181C20.3689 22.4181 20.3515 22.444 20.3515 22.47V24.3463C20.3515 24.4587 20.265 24.5452 20.1525 24.5452C20.0401 24.5452 19.9536 24.4587 19.9536 24.3463V23.3951C19.9536 23.3605 19.9277 23.3432 19.9016 23.3432C19.867 23.3432 19.8496 23.3691 19.8496 23.3951V24.3463C19.8496 24.4587 19.7631 24.5452 19.6507 24.5452C19.5382 24.5452 19.4517 24.4587 19.4517 24.3463V22.47C19.4517 22.4354 19.4258 22.4181 19.3998 22.4181C19.3652 22.4181 19.3393 22.444 19.3393 22.47V22.9974C19.3393 23.0924 19.2614 23.1616 19.1664 23.1616C19.0713 23.1616 18.9934 23.0838 18.9934 22.9974V22.3661C18.9675 22.1241 19.1577 21.9164 19.3999 21.9079H20.3684C20.6105 21.9166 20.8094 22.1241 20.8094 22.3661L20.8098 22.9974ZM24.647 20.6023C24.4567 20.6282 24.2838 20.4899 24.2666 20.2996L23.9812 17.9737C23.9726 17.9304 23.9293 17.8958 23.8862 17.8958C23.8342 17.8958 23.7911 17.9391 23.7911 17.9909C23.7911 17.9996 23.7911 18.0081 23.7911 18.0081C23.7911 18.0081 23.9901 19.6597 23.9986 19.6942C24.0073 19.7375 24.0073 19.7808 24.0073 19.8239V24.0175C24.0073 24.3115 23.7911 24.5536 23.5145 24.5536C23.2463 24.5536 23.0216 24.3115 23.0216 24.0175V20.6021C23.0216 20.5502 22.9783 20.5071 22.9265 20.5071C22.8746 20.5071 22.8315 20.5503 22.8315 20.6021V24.0089C22.8315 24.3029 22.6153 24.5449 22.3386 24.5449C22.0705 24.5449 21.8458 24.3029 21.8458 24.0089V19.8153C21.8458 19.7721 21.8458 19.7288 21.8545 19.6857C21.8545 19.6511 22.062 17.9996 22.062 17.9996C22.062 17.9996 22.062 17.9909 22.062 17.9823C22.062 17.9304 22.0187 17.8873 21.9669 17.8873C21.9151 17.8873 21.8804 17.9219 21.8719 17.9651L21.5952 20.2911C21.5606 20.49 21.3877 20.6283 21.1974 20.6023C21.0071 20.5764 20.8775 20.412 20.8947 20.2218L21.1887 17.7142C21.2579 17.2387 21.6644 16.8668 22.1659 16.8668H23.6706C24.1635 16.8668 24.5786 17.2387 24.6478 17.7142L24.9505 20.2218C24.9756 20.412 24.8373 20.5851 24.647 20.6023Z" fill="#222D39"/>
<path d="M6.85635 41.5883H33.7183V28.7218H6.85635V41.5883ZM23.2045 30.6951C23.4985 30.6951 23.758 30.8593 23.8876 31.0928C23.905 31.1187 23.9222 31.1448 23.9481 31.1707C24.1038 31.3263 24.3546 31.3263 24.5016 31.1707C24.5275 31.1448 24.5449 31.1187 24.5621 31.0928C24.467 31.7587 23.8961 32.2688 23.2043 32.2688C22.772 32.2688 22.4175 31.9143 22.4175 31.482C22.4175 31.0497 22.7721 30.6951 23.2045 30.6951ZM21.5096 33.315C21.5788 32.8394 21.9853 32.4676 22.4868 32.4676H23.9915C24.4844 32.4676 24.8995 32.8394 24.9687 33.315L25.2714 35.8225C25.2973 36.0128 25.159 36.1857 24.9687 36.2031C24.7784 36.229 24.6055 36.0906 24.5883 35.9004L24.3029 33.5744C24.2943 33.5312 24.251 33.4966 24.2079 33.4966C24.1559 33.4966 24.1128 33.5399 24.1128 33.5917C24.1128 33.6003 24.1128 33.6089 24.1128 33.6089C24.1128 33.6089 24.3118 35.2604 24.3203 35.295C24.329 35.3383 24.329 35.3815 24.329 35.4246V39.6183C24.329 39.9123 24.1128 40.1544 23.8362 40.1544C23.568 40.1544 23.3433 39.9123 23.3433 39.6183V36.2029C23.3433 36.151 23.3 36.1079 23.2482 36.1079C23.1963 36.1079 23.1532 36.1511 23.1532 36.2029V39.6096C23.1532 39.9036 22.937 40.1457 22.6603 40.1457C22.3922 40.1457 22.1675 39.9036 22.1675 39.6096V35.4161C22.1675 35.3729 22.1675 35.3296 22.1762 35.2865C22.1762 35.2519 22.3837 33.6003 22.3837 33.6003C22.3837 33.6003 22.3837 33.5917 22.3837 33.5831C22.3837 33.5312 22.3404 33.4881 22.2886 33.4881C22.2368 33.4881 22.2021 33.5227 22.1936 33.5659L21.9169 35.8919C21.8823 36.0908 21.7094 36.2291 21.5191 36.2031C21.3288 36.1772 21.1992 36.0128 21.2164 35.8225L21.5096 33.315ZM20.2063 36.471C20.4594 36.471 20.6645 36.6762 20.6645 36.9292C20.6645 37.1822 20.4593 37.3874 20.2063 37.3874C19.9531 37.3874 19.748 37.1822 19.748 36.9292C19.748 36.6762 19.9531 36.471 20.2063 36.471ZM19.3155 37.9669C19.2896 37.7249 19.4797 37.5172 19.7219 37.5087H20.6904C20.9325 37.5174 21.1315 37.7249 21.1315 37.9669V38.5982C21.1315 38.6932 21.0536 38.7624 20.9585 38.7624C20.8635 38.7624 20.7856 38.6845 20.7856 38.5982V38.0708C20.7856 38.0362 20.7597 38.0189 20.7252 38.0189C20.6906 38.0189 20.6732 38.0448 20.6732 38.0708V39.9471C20.6732 40.0595 20.5867 40.146 20.4742 40.146C20.3618 40.146 20.2753 40.0595 20.2753 39.9471V38.9959C20.2753 38.9613 20.2494 38.944 20.2233 38.944C20.1887 38.944 20.1713 38.9698 20.1713 38.9959V39.9471C20.1713 40.0595 20.0848 40.146 19.9724 40.146C19.8599 40.146 19.7734 40.0595 19.7734 39.9471V38.0708C19.7734 38.0362 19.7475 38.0189 19.7215 38.0189C19.6869 38.0189 19.661 38.0448 19.661 38.0708V38.5982C19.661 38.6932 19.5831 38.7624 19.4881 38.7624C19.393 38.7624 19.3151 38.6845 19.3151 38.5982L19.3155 37.9669ZM17.2637 30.6518C17.6983 30.6518 18.0505 31.004 18.0505 31.4386C18.0505 31.8732 17.6983 32.2254 17.2637 32.2254C16.829 32.2254 16.4768 31.8732 16.4768 31.4386C16.4768 31.004 16.829 30.6518 17.2637 30.6518ZM16.2691 32.433H18.2408C18.7856 32.433 19.2267 32.874 19.2267 33.4188V35.8312C19.2267 36.0215 19.071 36.177 18.8807 36.177C18.6819 36.177 18.5349 36.0213 18.5349 35.8312V33.6175C18.5349 33.5656 18.4916 33.5225 18.4398 33.5225C18.3878 33.5225 18.3447 33.5658 18.3447 33.6175V39.6096C18.3447 39.9036 18.1286 40.1457 17.8519 40.1457C17.5752 40.1457 17.359 39.9036 17.359 39.6096V36.1942C17.359 36.1423 17.3158 36.0992 17.264 36.0992C17.212 36.0992 17.1689 36.1424 17.1689 36.1942V39.6096C17.1689 39.9036 16.9527 40.1457 16.6761 40.1457C16.3994 40.1457 16.1832 39.9036 16.1832 39.6096V33.6175C16.1832 33.5656 16.14 33.5225 16.0882 33.5225C16.0364 33.5225 15.9931 33.5658 15.9931 33.6175V35.8398C15.9931 36.03 15.8374 36.1855 15.6473 36.1855C15.4483 36.1855 15.3013 36.0299 15.3013 35.8398V33.4188C15.2834 32.874 15.733 32.433 16.2691 32.433ZM36.6716 21.9549L39.7093 18.7035L31.1447 10.9085V1.86305H26.1583V6.32322L20.3636 1.0293L0.894775 18.4534L3.85474 21.7881L6.85635 19.0787V25.9877H33.7183V19.2455L36.6716 21.9549ZM22.8828 15.0945C23.1768 15.0945 23.4363 15.2587 23.5659 15.4922C23.5833 15.5181 23.6005 15.5441 23.6264 15.57C23.7821 15.7257 24.0329 15.7257 24.1799 15.57C24.2058 15.5441 24.2232 15.5181 24.2404 15.4922C24.1453 16.158 23.5744 16.6682 22.8826 16.6682C22.4503 16.6682 22.0958 16.3137 22.0958 15.8814C22.0958 15.4491 22.4504 15.0945 22.8828 15.0945ZM19.8846 20.8704C20.1377 20.8704 20.3428 21.0756 20.3428 21.3286C20.3428 21.5816 20.1376 21.7868 19.8846 21.7868C19.6314 21.7868 19.4263 21.5816 19.4263 21.3286C19.4263 21.0756 19.6314 20.8704 19.8846 20.8704ZM16.942 15.0512C17.3766 15.0512 17.7288 15.4034 17.7288 15.838C17.7288 16.2726 17.3766 16.6248 16.942 16.6248C16.5073 16.6248 16.1551 16.2726 16.1551 15.838C16.1551 15.4034 16.5073 15.0512 16.942 15.0512ZM18.905 20.2304C18.905 20.4207 18.7493 20.5762 18.559 20.5762C18.3602 20.5762 18.2132 20.4205 18.2132 20.2304V18.0169C18.2132 17.965 18.1699 17.9219 18.1181 17.9219C18.0661 17.9219 18.023 17.9651 18.023 18.0169V24.009C18.023 24.303 17.8069 24.5451 17.5302 24.5451C17.2535 24.5451 17.0373 24.303 17.0373 24.009V20.5936C17.0373 20.5417 16.9941 20.4986 16.9423 20.4986C16.8903 20.4986 16.8472 20.5418 16.8472 20.5936V24.009C16.8472 24.303 16.631 24.5451 16.3544 24.5451C16.0777 24.5451 15.8615 24.303 15.8615 24.009V18.0169C15.8615 17.965 15.8183 17.9219 15.7665 17.9219C15.7147 17.9219 15.6714 17.9651 15.6714 18.0169V20.2391C15.6714 20.4294 15.5157 20.5849 15.3256 20.5849C15.1266 20.5849 14.9796 20.4292 14.9796 20.2391V17.8181C14.9622 17.2734 15.412 16.8324 15.9481 16.8324H17.9198C18.4646 16.8324 18.9056 17.2734 18.9056 17.8181L18.905 20.2304ZM20.8098 22.9974C20.8098 23.0924 20.7319 23.1616 20.6368 23.1616C20.5418 23.1616 20.4639 23.0838 20.4639 22.9974V22.47C20.4639 22.4354 20.438 22.4181 20.4035 22.4181C20.3689 22.4181 20.3515 22.444 20.3515 22.47V24.3463C20.3515 24.4587 20.265 24.5452 20.1525 24.5452C20.0401 24.5452 19.9536 24.4587 19.9536 24.3463V23.3951C19.9536 23.3605 19.9277 23.3432 19.9016 23.3432C19.867 23.3432 19.8496 23.3691 19.8496 23.3951V24.3463C19.8496 24.4587 19.7631 24.5452 19.6507 24.5452C19.5382 24.5452 19.4517 24.4587 19.4517 24.3463V22.47C19.4517 22.4354 19.4258 22.4181 19.3998 22.4181C19.3652 22.4181 19.3393 22.444 19.3393 22.47V22.9974C19.3393 23.0924 19.2614 23.1616 19.1664 23.1616C19.0713 23.1616 18.9934 23.0838 18.9934 22.9974V22.3661C18.9675 22.1241 19.1577 21.9164 19.3999 21.9079H20.3684C20.6105 21.9166 20.8094 22.1241 20.8094 22.3661L20.8098 22.9974ZM24.647 20.6023C24.4567 20.6282 24.2838 20.4899 24.2666 20.2996L23.9812 17.9737C23.9726 17.9304 23.9293 17.8958 23.8862 17.8958C23.8342 17.8958 23.7911 17.9391 23.7911 17.9909C23.7911 17.9996 23.7911 18.0081 23.7911 18.0081C23.7911 18.0081 23.9901 19.6597 23.9986 19.6942C24.0073 19.7375 24.0073 19.7808 24.0073 19.8239V24.0175C24.0073 24.3115 23.7911 24.5536 23.5145 24.5536C23.2463 24.5536 23.0216 24.3115 23.0216 24.0175V20.6021C23.0216 20.5502 22.9783 20.5071 22.9265 20.5071C22.8746 20.5071 22.8315 20.5503 22.8315 20.6021V24.0089C22.8315 24.3029 22.6153 24.5449 22.3386 24.5449C22.0705 24.5449 21.8458 24.3029 21.8458 24.0089V19.8153C21.8458 19.7721 21.8458 19.7288 21.8545 19.6857C21.8545 19.6511 22.062 17.9996 22.062 17.9996C22.062 17.9996 22.062 17.9909 22.062 17.9823C22.062 17.9304 22.0187 17.8873 21.9669 17.8873C21.9151 17.8873 21.8804 17.9219 21.8719 17.9651L21.5952 20.2911C21.5606 20.49 21.3877 20.6283 21.1974 20.6023C21.0071 20.5764 20.8775 20.412 20.8947 20.2218L21.1887 17.7142C21.2579 17.2387 21.6644 16.8668 22.1659 16.8668H23.6706C24.1635 16.8668 24.5786 17.2387 24.6478 17.7142L24.9505 20.2218C24.9756 20.412 24.8373 20.5851 24.647 20.6023Z" fill="#222D39"/>
<path d="M6.85645 41.5891H33.7184V28.7227H6.85645V41.5891ZM23.2046 30.6959C23.4986 30.6959 23.7581 30.8601 23.8877 31.0936C23.9051 31.1195 23.9223 31.1456 23.9482 31.1715C24.1039 31.3272 24.3547 31.3272 24.5017 31.1715C24.5276 31.1456 24.5449 31.1195 24.5622 31.0936C24.4671 31.7595 23.8962 32.2696 23.2044 32.2696C22.7721 32.2696 22.4175 31.9152 22.4175 31.4828C22.4175 31.0505 22.7722 30.6959 23.2046 30.6959ZM21.5097 33.3158C21.5789 32.8403 21.9853 32.4684 22.4869 32.4684H23.9916C24.4845 32.4684 24.8996 32.8403 24.9688 33.3158L25.2715 35.8234C25.2974 36.0136 25.1591 36.1865 24.9688 36.2039C24.7785 36.2298 24.6056 36.0915 24.5884 35.9012L24.303 33.5753C24.2943 33.532 24.2511 33.4974 24.208 33.4974C24.156 33.4974 24.1129 33.5407 24.1129 33.5925C24.1129 33.6011 24.1129 33.6097 24.1129 33.6097C24.1129 33.6097 24.3119 35.2612 24.3204 35.2958C24.3291 35.3391 24.3291 35.3824 24.3291 35.4255V39.6191C24.3291 39.9131 24.1129 40.1552 23.8362 40.1552C23.5681 40.1552 23.3434 39.9131 23.3434 39.6191V36.2037C23.3434 36.1518 23.3001 36.1087 23.2483 36.1087C23.1964 36.1087 23.1533 36.1519 23.1533 36.2037V39.6104C23.1533 39.9044 22.9371 40.1465 22.6604 40.1465C22.3923 40.1465 22.1676 39.9044 22.1676 39.6104V35.4169C22.1676 35.3737 22.1676 35.3304 22.1763 35.2873C22.1763 35.2527 22.3838 33.6011 22.3838 33.6011C22.3838 33.6011 22.3838 33.5925 22.3838 33.5839C22.3838 33.532 22.3405 33.4889 22.2887 33.4889C22.2369 33.4889 22.2022 33.5235 22.1936 33.5667L21.917 35.8927C21.8824 36.0916 21.7095 36.2299 21.5192 36.2039C21.3289 36.178 21.1993 36.0136 21.2165 35.8234L21.5097 33.3158ZM20.2063 36.4718C20.4595 36.4718 20.6646 36.677 20.6646 36.93C20.6646 37.183 20.4594 37.3882 20.2063 37.3882C19.9532 37.3882 19.7481 37.183 19.7481 36.93C19.7481 36.677 19.9532 36.4718 20.2063 36.4718ZM19.3156 37.9677C19.2897 37.7257 19.4798 37.518 19.722 37.5095H20.6905C20.9326 37.5182 21.1316 37.7257 21.1316 37.9677V38.599C21.1316 38.694 21.0537 38.7632 20.9586 38.7632C20.8636 38.7632 20.7857 38.6853 20.7857 38.599V38.0716C20.7857 38.037 20.7598 38.0197 20.7252 38.0197C20.6907 38.0197 20.6733 38.0456 20.6733 38.0716V39.9479C20.6733 40.0603 20.5868 40.1468 20.4743 40.1468C20.3619 40.1468 20.2753 40.0603 20.2753 39.9479V38.9967C20.2753 38.9621 20.2494 38.9448 20.2234 38.9448C20.1888 38.9448 20.1714 38.9707 20.1714 38.9967V39.9479C20.1714 40.0603 20.0849 40.1468 19.9725 40.1468C19.86 40.1468 19.7735 40.0603 19.7735 39.9479V38.0716C19.7735 38.037 19.7476 38.0197 19.7215 38.0197C19.687 38.0197 19.6611 38.0456 19.6611 38.0716V38.599C19.6611 38.694 19.5832 38.7632 19.4881 38.7632C19.3931 38.7632 19.3152 38.6853 19.3152 38.599L19.3156 37.9677ZM17.2638 30.6526C17.6984 30.6526 18.0506 31.0048 18.0506 31.4394C18.0506 31.874 17.6984 32.2262 17.2638 32.2262C16.8291 32.2262 16.4769 31.874 16.4769 31.4394C16.4769 31.0048 16.8291 30.6526 17.2638 30.6526ZM16.2692 32.4338H18.2409C18.7857 32.4338 19.2268 32.8748 19.2268 33.4196V35.832C19.2268 36.0223 19.0711 36.1778 18.8808 36.1778C18.682 36.1778 18.535 36.0221 18.535 35.832V33.6184C18.535 33.5664 18.4917 33.5233 18.4399 33.5233C18.3879 33.5233 18.3448 33.5666 18.3448 33.6184V39.6104C18.3448 39.9044 18.1286 40.1465 17.852 40.1465C17.5753 40.1465 17.3591 39.9044 17.3591 39.6104V36.195C17.3591 36.1431 17.3159 36.1 17.2641 36.1C17.2121 36.1 17.169 36.1432 17.169 36.195V39.6104C17.169 39.9044 16.9528 40.1465 16.6762 40.1465C16.3995 40.1465 16.1833 39.9044 16.1833 39.6104V33.6184C16.1833 33.5664 16.1401 33.5233 16.0883 33.5233C16.0365 33.5233 15.9932 33.5666 15.9932 33.6184V35.8406C15.9932 36.0308 15.8375 36.1863 15.6474 36.1863C15.4484 36.1863 15.3014 36.0307 15.3014 35.8406V33.4196C15.2835 32.8748 15.7331 32.4338 16.2692 32.4338Z" fill="#222D39"/>
<path d="M6.85645 41.5891H33.7184V28.7227H6.85645V41.5891ZM23.2046 30.6959C23.4986 30.6959 23.7581 30.8601 23.8877 31.0936C23.9051 31.1195 23.9223 31.1456 23.9482 31.1715C24.1039 31.3272 24.3547 31.3272 24.5017 31.1715C24.5276 31.1456 24.5449 31.1195 24.5622 31.0936C24.4671 31.7595 23.8962 32.2696 23.2044 32.2696C22.7721 32.2696 22.4175 31.9152 22.4175 31.4828C22.4175 31.0505 22.7722 30.6959 23.2046 30.6959ZM21.5097 33.3158C21.5789 32.8403 21.9853 32.4684 22.4869 32.4684H23.9916C24.4845 32.4684 24.8996 32.8403 24.9688 33.3158L25.2715 35.8234C25.2974 36.0136 25.1591 36.1865 24.9688 36.2039C24.7785 36.2298 24.6056 36.0915 24.5884 35.9012L24.303 33.5753C24.2943 33.532 24.2511 33.4974 24.208 33.4974C24.156 33.4974 24.1129 33.5407 24.1129 33.5925C24.1129 33.6011 24.1129 33.6097 24.1129 33.6097C24.1129 33.6097 24.3119 35.2612 24.3204 35.2958C24.3291 35.3391 24.3291 35.3824 24.3291 35.4255V39.6191C24.3291 39.9131 24.1129 40.1552 23.8362 40.1552C23.5681 40.1552 23.3434 39.9131 23.3434 39.6191V36.2037C23.3434 36.1518 23.3001 36.1087 23.2483 36.1087C23.1964 36.1087 23.1533 36.1519 23.1533 36.2037V39.6104C23.1533 39.9044 22.9371 40.1465 22.6604 40.1465C22.3923 40.1465 22.1676 39.9044 22.1676 39.6104V35.4169C22.1676 35.3737 22.1676 35.3304 22.1763 35.2873C22.1763 35.2527 22.3838 33.6011 22.3838 33.6011C22.3838 33.6011 22.3838 33.5925 22.3838 33.5839C22.3838 33.532 22.3405 33.4889 22.2887 33.4889C22.2369 33.4889 22.2022 33.5235 22.1936 33.5667L21.917 35.8927C21.8824 36.0916 21.7095 36.2299 21.5192 36.2039C21.3289 36.178 21.1993 36.0136 21.2165 35.8234L21.5097 33.3158ZM20.2063 36.4718C20.4595 36.4718 20.6646 36.677 20.6646 36.93C20.6646 37.183 20.4594 37.3882 20.2063 37.3882C19.9532 37.3882 19.7481 37.183 19.7481 36.93C19.7481 36.677 19.9532 36.4718 20.2063 36.4718ZM19.3156 37.9677C19.2897 37.7257 19.4798 37.518 19.722 37.5095H20.6905C20.9326 37.5182 21.1316 37.7257 21.1316 37.9677V38.599C21.1316 38.694 21.0537 38.7632 20.9586 38.7632C20.8636 38.7632 20.7857 38.6853 20.7857 38.599V38.0716C20.7857 38.037 20.7598 38.0197 20.7252 38.0197C20.6907 38.0197 20.6733 38.0456 20.6733 38.0716V39.9479C20.6733 40.0603 20.5868 40.1468 20.4743 40.1468C20.3619 40.1468 20.2753 40.0603 20.2753 39.9479V38.9967C20.2753 38.9621 20.2494 38.9448 20.2234 38.9448C20.1888 38.9448 20.1714 38.9707 20.1714 38.9967V39.9479C20.1714 40.0603 20.0849 40.1468 19.9725 40.1468C19.86 40.1468 19.7735 40.0603 19.7735 39.9479V38.0716C19.7735 38.037 19.7476 38.0197 19.7215 38.0197C19.687 38.0197 19.6611 38.0456 19.6611 38.0716V38.599C19.6611 38.694 19.5832 38.7632 19.4881 38.7632C19.3931 38.7632 19.3152 38.6853 19.3152 38.599L19.3156 37.9677ZM17.2638 30.6526C17.6984 30.6526 18.0506 31.0048 18.0506 31.4394C18.0506 31.874 17.6984 32.2262 17.2638 32.2262C16.8291 32.2262 16.4769 31.874 16.4769 31.4394C16.4769 31.0048 16.8291 30.6526 17.2638 30.6526ZM16.2692 32.4338H18.2409C18.7857 32.4338 19.2268 32.8748 19.2268 33.4196V35.832C19.2268 36.0223 19.0711 36.1778 18.8808 36.1778C18.682 36.1778 18.535 36.0221 18.535 35.832V33.6184C18.535 33.5664 18.4917 33.5233 18.4399 33.5233C18.3879 33.5233 18.3448 33.5666 18.3448 33.6184V39.6104C18.3448 39.9044 18.1286 40.1465 17.852 40.1465C17.5753 40.1465 17.3591 39.9044 17.3591 39.6104V36.195C17.3591 36.1431 17.3159 36.1 17.2641 36.1C17.2121 36.1 17.169 36.1432 17.169 36.195V39.6104C17.169 39.9044 16.9528 40.1465 16.6762 40.1465C16.3995 40.1465 16.1833 39.9044 16.1833 39.6104V33.6184C16.1833 33.5664 16.1401 33.5233 16.0883 33.5233C16.0365 33.5233 15.9932 33.5666 15.9932 33.6184V35.8406C15.9932 36.0308 15.8375 36.1863 15.6474 36.1863C15.4484 36.1863 15.3014 36.0307 15.3014 35.8406V33.4196C15.2835 32.8748 15.7331 32.4338 16.2692 32.4338Z" fill="#E98862"/>
</g>
<defs>
<clipPath id="clip0_531_1154">
<rect width="39.4082" height="41.1728" fill="white" transform="translate(0.583252 0.738281)"/>
</clipPath>
</defs>
</svg>
