<svg width="49" height="44" viewBox="0 0 49 44" fill="none" xmlns="http://www.w3.org/2000/svg">
<g clip-path="url(#clip0_536_1318)">
<path d="M15.4174 21.0753C15.6215 21.0753 15.788 20.9115 15.788 20.7074C15.788 20.5033 15.6215 20.3367 15.4174 20.3367C15.2133 20.3367 15.0495 20.5033 15.0495 20.7074V20.71L13.9175 20.7208L13.3603 19.7352C13.4718 19.6707 13.5483 19.5526 13.5483 19.4156C13.5483 19.2115 13.3832 19.0449 13.1791 19.0449C12.975 19.0449 12.8098 19.2115 12.8098 19.4156C12.8098 19.5526 12.8864 19.6707 12.9978 19.7352L12.4406 20.7208L11.3098 20.71V20.7074C11.3098 20.5033 11.1447 20.3367 10.9406 20.3367C10.7365 20.3367 10.5713 20.5033 10.5713 20.7074C10.5713 20.9115 10.7365 21.0753 10.9406 21.0753C11.0091 21.0753 11.0721 21.0565 11.1272 21.0242L11.702 21.9991L11.1286 22.974C11.0722 22.9418 11.0091 22.9216 10.9406 22.9216C10.7365 22.9216 10.5713 23.0868 10.5713 23.2909C10.5713 23.495 10.7365 23.6616 10.9406 23.6616C11.1447 23.6616 11.3098 23.495 11.3098 23.2909V23.2882L12.4404 23.2774L12.9976 24.263C12.8862 24.3275 12.8096 24.4457 12.8096 24.5839C12.8096 24.788 12.9748 24.9532 13.1789 24.9532C13.383 24.9532 13.5482 24.788 13.5482 24.5839C13.5482 24.4457 13.473 24.3275 13.3601 24.263L13.9174 23.2774L15.0495 23.2882V23.2908C15.0495 23.4949 15.2133 23.6615 15.4174 23.6615C15.6215 23.6615 15.788 23.4949 15.788 23.2908C15.788 23.0867 15.6215 22.9216 15.4174 22.9216C15.3489 22.9216 15.2858 22.9417 15.2307 22.9739L14.6561 21.9991L15.2308 21.0242C15.2858 21.0565 15.3489 21.0753 15.4174 21.0753Z" fill="#E98862"/>
<path d="M43.3762 6.63281H26.7741C25.2836 6.63281 22.8667 6.63281 21.3762 6.63281H4.77415C3.28373 6.63281 2.0752 7.84127 2.0752 9.33177V34.6673C2.0752 36.1578 3.28373 37.3662 4.77415 37.3662H21.3762C22.8667 37.3662 25.2837 37.3662 26.7742 37.3662H43.3763C44.8668 37.3662 46.0753 36.1577 46.0753 34.6673V9.33177C46.0752 7.84127 44.8667 6.63281 43.3762 6.63281ZM19.0398 24.3896C18.7228 25.3538 17.9347 26.1675 16.7598 26.7422C14.845 27.6781 13.3129 28.512 13.2981 28.5201C13.2605 28.5402 13.2189 28.5496 13.1786 28.5496C13.137 28.5496 13.0967 28.5403 13.0604 28.5201C13.0443 28.512 11.5109 27.6781 9.59602 26.7422C8.42245 26.1674 7.63432 25.3537 7.31738 24.3896C7.01798 23.4819 7.14551 22.4506 7.68399 21.41C8.43732 19.9612 8.42116 19.1126 8.27619 18.6586C8.13516 18.2182 7.85587 18.0705 7.84512 18.0652C7.78205 18.0329 7.73504 17.9766 7.71622 17.9094C7.6974 17.8422 7.70685 17.7697 7.74441 17.7106L9.02135 15.6722C9.06166 15.6078 9.13015 15.5648 9.20534 15.5567C9.21342 15.5567 9.22279 15.5567 9.23087 15.5567C9.29798 15.5567 9.36381 15.5836 9.41082 15.6319C9.41752 15.64 10.101 16.3356 11.1081 16.3356C11.7486 16.3356 12.3891 16.0577 13.0149 15.5111C13.0619 15.4695 13.1209 15.4493 13.1787 15.4493C13.2378 15.4493 13.2955 15.4694 13.3425 15.5111C13.9682 16.0576 14.6087 16.3356 15.2479 16.3356C16.263 16.3356 16.9384 15.64 16.9451 15.6319C16.9935 15.5835 17.058 15.5554 17.1251 15.5554C17.1332 15.5554 17.1412 15.5567 17.1492 15.5567C17.2258 15.5648 17.2943 15.6078 17.3345 15.6722L18.6128 17.7106C18.6505 17.771 18.6612 17.8449 18.6397 17.912C18.6209 17.9805 18.5726 18.0356 18.5082 18.0665C18.5001 18.0705 18.2208 18.2182 18.0799 18.6586C17.9348 19.1152 17.9187 19.9611 18.672 21.41C19.2116 22.4506 19.3393 23.4792 19.0398 24.3896ZM42.5035 33.7944H27.647V10.2045H42.5035V33.7944Z" fill="#222D39"/>
<path d="M39.4096 15.1113H30.4814V16.72H39.4096V15.1113Z" fill="#0CBC8B"/>
<path d="M36.9093 19.0391H30.4814V20.6451H36.9093V19.0391Z" fill="#0CBC8B"/>
<path d="M39.6643 27.0063C39.6643 26.0435 38.9284 24.9316 37.5763 24.9316C36.2242 24.9316 35.4883 26.0435 35.4883 27.0063C35.4883 27.8186 35.9072 28.5384 36.1784 28.96C36.4497 29.3803 36.2792 29.3923 36.1717 29.4997C36.0657 29.6072 35.3701 29.8046 35.3701 30.5014C35.3701 30.5014 35.9717 30.9284 37.5763 30.9284C39.1809 30.9284 39.7825 30.5014 39.7825 30.5014C39.7825 29.8046 39.0869 29.6072 38.9795 29.4997C38.8734 29.3923 38.7029 29.3802 38.9741 28.96C39.2441 28.5384 39.6643 27.8186 39.6643 27.0063Z" fill="#0CBC8B"/>
</g>
<line x1="0.35846" y1="5.58798" x2="48.3585" y2="38.588" stroke="#FF0000"/>
<defs>
<clipPath id="clip0_536_1318">
<rect width="44" height="44" fill="white" transform="translate(2.0752)"/>
</clipPath>
</defs>
</svg>
