<svg width="45" height="32" viewBox="0 0 45 32" fill="none" xmlns="http://www.w3.org/2000/svg">
<path d="M13.8793 15.0753C14.0834 15.0753 14.25 14.9115 14.25 14.7074C14.25 14.5033 14.0834 14.3367 13.8793 14.3367C13.6752 14.3367 13.5114 14.5033 13.5114 14.7074V14.71L12.3794 14.7208L11.8222 13.7352C11.9337 13.6707 12.0103 13.5526 12.0103 13.4156C12.0103 13.2115 11.8451 13.0449 11.641 13.0449C11.4369 13.0449 11.2717 13.2115 11.2717 13.4156C11.2717 13.5526 11.3483 13.6707 11.4597 13.7352L10.9025 14.7208L9.77175 14.71V14.7074C9.77175 14.5033 9.60658 14.3367 9.40248 14.3367C9.19837 14.3367 9.0332 14.5033 9.0332 14.7074C9.0332 14.9115 9.19837 15.0753 9.40248 15.0753C9.47097 15.0753 9.53405 15.0565 9.58913 15.0242L10.1639 15.9991L9.59051 16.974C9.53413 16.9418 9.47097 16.9216 9.40248 16.9216C9.19837 16.9216 9.0332 17.0868 9.0332 17.2909C9.0332 17.495 9.19837 17.6616 9.40248 17.6616C9.60658 17.6616 9.77175 17.495 9.77175 17.2909V17.2882L10.9023 17.2774L11.4596 18.263C11.3481 18.3275 11.2715 18.4457 11.2715 18.5839C11.2715 18.788 11.4367 18.9532 11.6408 18.9532C11.8449 18.9532 12.0101 18.788 12.0101 18.5839C12.0101 18.4457 11.9349 18.3275 11.822 18.263L12.3793 17.2774L13.5114 17.2882V17.2908C13.5114 17.4949 13.6752 17.6615 13.8793 17.6615C14.0834 17.6615 14.25 17.4949 14.25 17.2908C14.25 17.0867 14.0834 16.9216 13.8793 16.9216C13.8108 16.9216 13.7477 16.9417 13.6926 16.9739L13.118 15.9991L13.6927 15.0242C13.7477 15.0565 13.8108 15.0753 13.8793 15.0753Z" fill="#E98862"/>
<path d="M41.8382 0.632812H25.2361C23.7456 0.632812 21.3286 0.632812 19.8381 0.632812H3.23606C1.74565 0.632812 0.537109 1.84127 0.537109 3.33177V28.6673C0.537109 30.1578 1.74565 31.3662 3.23606 31.3662H19.8382C21.3287 31.3662 23.7456 31.3662 25.2361 31.3662H41.8382C43.3287 31.3662 44.5372 30.1577 44.5372 28.6673V3.33177C44.5371 1.84127 43.3287 0.632812 41.8382 0.632812ZM17.5017 18.3896C17.1847 19.3538 16.3966 20.1675 15.2217 20.7422C13.3069 21.6781 11.7748 22.512 11.76 22.5201C11.7224 22.5402 11.6808 22.5496 11.6405 22.5496C11.5989 22.5496 11.5586 22.5403 11.5223 22.5201C11.5062 22.512 9.97279 21.6781 8.05793 20.7422C6.88437 20.1674 6.09623 19.3537 5.7793 18.3896C5.47989 17.4819 5.60742 16.4506 6.14591 15.41C6.89923 13.9612 6.88308 13.1126 6.7381 12.6586C6.59708 12.2182 6.31778 12.0705 6.30704 12.0652C6.24396 12.0329 6.19695 11.9766 6.17813 11.9094C6.15931 11.8422 6.16877 11.7697 6.20632 11.7106L7.48327 9.67223C7.52357 9.60778 7.59206 9.56481 7.66726 9.55673C7.67534 9.55673 7.6847 9.55673 7.69278 9.55673C7.7599 9.55673 7.82573 9.58363 7.87273 9.63193C7.87944 9.64001 8.5629 10.3356 9.57 10.3356C10.2105 10.3356 10.851 10.0577 11.4768 9.5111C11.5238 9.46951 11.5828 9.44931 11.6406 9.44931C11.6997 9.44931 11.7574 9.46942 11.8044 9.5111C12.4301 10.0576 13.0706 10.3356 13.7098 10.3356C14.725 10.3356 15.4003 9.64001 15.407 9.63193C15.4554 9.58355 15.5199 9.55536 15.587 9.55536C15.5951 9.55536 15.6032 9.55673 15.6111 9.55673C15.6877 9.56481 15.7562 9.60778 15.7964 9.67223L17.0748 11.7106C17.1124 11.771 17.1231 11.8449 17.1016 11.912C17.0828 11.9805 17.0345 12.0356 16.9701 12.0665C16.962 12.0705 16.6827 12.2182 16.5418 12.6586C16.3967 13.1152 16.3806 13.9611 17.134 15.41C17.6736 16.4506 17.8012 17.4792 17.5017 18.3896ZM40.9654 27.7944H26.1089V4.20455H40.9654V27.7944Z" fill="#222D39"/>
<path d="M37.8715 9.11133H28.9434V10.72H37.8715V9.11133Z" fill="#0CBC8B"/>
<path d="M35.3712 13.0391H28.9434V14.6451H35.3712V13.0391Z" fill="#0CBC8B"/>
<path d="M38.1262 21.0063C38.1262 20.0435 37.3904 18.9316 36.0382 18.9316C34.6861 18.9316 33.9502 20.0435 33.9502 21.0063C33.9502 21.8186 34.3691 22.5384 34.6404 22.96C34.9116 23.3803 34.7411 23.3923 34.6337 23.4997C34.5276 23.6072 33.832 23.8046 33.832 24.5014C33.832 24.5014 34.4336 24.9284 36.0382 24.9284C37.6428 24.9284 38.2444 24.5014 38.2444 24.5014C38.2444 23.8046 37.5488 23.6072 37.4414 23.4997C37.3354 23.3923 37.1648 23.3802 37.436 22.96C37.706 22.5384 38.1262 21.8186 38.1262 21.0063Z" fill="#0CBC8B"/>
</svg>
