<svg width="52" height="52" viewBox="0 0 52 52" fill="none" xmlns="http://www.w3.org/2000/svg">
<g id="mortgage-insurance-svgrepo-com 1" clip-path="url(#clip0_432_873)">
<g id="Group 261">
<path id="Vector" d="M49.9745 24.0494L26.2902 0.36499L2.60583 24.0494H8.09705L12.0907 49.9524H40.4897L44.4833 24.0494H49.9745Z" fill="#222D39"/>
<path id="Vector_2" d="M33.0015 34.8105C33.0015 31.0942 30.0063 28.0435 26.2901 28.0435C24.6815 28.0435 23.4058 26.7678 23.4058 25.1592C23.4058 23.5507 24.6815 22.275 26.2901 22.275C27.0666 22.275 27.8431 22.6078 28.3978 23.1624C29.1189 23.939 30.3391 23.9944 31.1157 23.2179C31.8922 22.4968 31.9477 21.2766 31.1711 20.5C30.3391 19.6126 29.3407 19.0024 28.1759 18.6696V17.3384C28.1759 16.2845 27.2885 15.3971 26.2346 15.3971C25.1807 15.3971 24.2933 16.2845 24.2933 17.3384V18.6696C21.5199 19.5016 19.4677 22.0531 19.4677 25.1038C19.5786 28.8755 22.5738 31.9262 26.2901 31.9262C27.8986 31.9262 29.1743 33.202 29.1743 34.8105C29.1743 36.419 27.8986 37.6948 26.2901 37.6948C25.5135 37.6948 24.737 37.362 24.1823 36.8073C23.4613 36.0308 22.241 35.9753 21.4645 36.7518C20.6879 37.4729 20.6325 38.6932 21.409 39.4697C22.241 40.3572 23.2394 40.9673 24.4042 41.3001V42.6313C24.4042 43.6852 25.2917 44.5727 26.3455 44.5727C27.3994 44.5727 28.2869 43.6852 28.2869 42.6313V41.3001C31.0047 40.4127 33.0015 37.8612 33.0015 34.8105Z" fill="#FF7058"/>
</g>
</g>
<defs>
<clipPath id="clip0_432_873">
<rect width="50.88" height="50.88" fill="white" transform="translate(0.850098 0.36499)"/>
</clipPath>
</defs>
</svg>
