<svg width="49" height="44" viewBox="0 0 49 44" fill="none" xmlns="http://www.w3.org/2000/svg">
<path d="M41.9163 41.6033C41.9163 42.1832 41.686 42.7393 41.276 43.1494C40.8659 43.5594 40.3098 43.7897 39.7299 43.7897H9.11997C8.54009 43.7897 7.98397 43.5594 7.57393 43.1494C7.1639 42.7393 6.93354 42.1832 6.93354 41.6033V21.9255H0.374268L22.9535 1.39933C23.356 1.03306 23.8807 0.830078 24.4249 0.830078C24.9692 0.830078 25.4939 1.03306 25.8964 1.39933L48.4756 21.9255H41.9163V41.6033ZM37.5435 39.4169V17.8959L24.4249 5.97115L11.3064 17.8959V39.4169H37.5435ZM24.4249 35.044L17.0807 27.6998C16.6239 27.243 16.2616 26.7007 16.0143 26.1038C15.7671 25.507 15.6399 24.8673 15.6399 24.2212C15.6399 23.5752 15.7671 22.9355 16.0143 22.3386C16.2616 21.7418 16.6239 21.1994 17.0807 20.7426C17.5376 20.2858 18.0799 19.9235 18.6767 19.6762C19.2736 19.429 19.9133 19.3017 20.5593 19.3017C21.2054 19.3017 21.8451 19.429 22.442 19.6762C23.0388 19.9235 23.5811 20.2858 24.0379 20.7426L24.4249 21.1296L24.8119 20.7426C25.2688 20.2858 25.8111 19.9235 26.4079 19.6762C27.0048 19.429 27.6445 19.3017 28.2905 19.3017C28.9366 19.3017 29.5763 19.429 30.1732 19.6762C30.77 19.9235 31.3123 20.2858 31.7691 20.7426C32.226 21.1994 32.5883 21.7418 32.8356 22.3386C33.0828 22.9355 33.21 23.5752 33.21 24.2212C33.21 24.8673 33.0828 25.507 32.8356 26.1038C32.5883 26.7007 32.226 27.243 31.7691 27.6998L24.4249 35.044Z" fill="#222D39"/>
<path d="M41.9163 41.6033C41.9163 42.1832 41.686 42.7393 41.276 43.1494C40.8659 43.5594 40.3098 43.7897 39.7299 43.7897H9.11997C8.54009 43.7897 7.98397 43.5594 7.57393 43.1494C7.1639 42.7393 6.93354 42.1832 6.93354 41.6033V21.9255H0.374268L22.9535 1.39933C23.356 1.03306 23.8807 0.830078 24.4249 0.830078C24.9692 0.830078 25.4939 1.03306 25.8964 1.39933L48.4756 21.9255H41.9163V41.6033ZM37.5435 39.4169V17.8959L24.4249 5.97115L11.3064 17.8959V39.4169H37.5435ZM24.4249 35.044L17.0807 27.6998C16.6239 27.243 16.2616 26.7007 16.0143 26.1038C15.7671 25.507 15.6399 24.8673 15.6399 24.2212C15.6399 23.5752 15.7671 22.9355 16.0143 22.3386C16.2616 21.7418 16.6239 21.1994 17.0807 20.7426C17.5376 20.2858 18.0799 19.9235 18.6767 19.6762C19.2736 19.429 19.9133 19.3017 20.5593 19.3017C21.2054 19.3017 21.8451 19.429 22.442 19.6762C23.0388 19.9235 23.5811 20.2858 24.0379 20.7426L24.4249 21.1296L24.8119 20.7426C25.2688 20.2858 25.8111 19.9235 26.4079 19.6762C27.0048 19.429 27.6445 19.3017 28.2905 19.3017C28.9366 19.3017 29.5763 19.429 30.1732 19.6762C30.77 19.9235 31.3123 20.2858 31.7691 20.7426C32.226 21.1994 32.5883 21.7418 32.8356 22.3386C33.0828 22.9355 33.21 23.5752 33.21 24.2212C33.21 24.8673 33.0828 25.507 32.8356 26.1038C32.5883 26.7007 32.226 27.243 31.7691 27.6998L24.4249 35.044Z" fill="#222D39"/>
<path d="M24.4249 35.0451L17.0807 27.7009C16.6239 27.2441 16.2616 26.7018 16.0143 26.1049C15.7671 25.508 15.6399 24.8683 15.6399 24.2223C15.6399 23.5763 15.7671 22.9366 16.0143 22.3397C16.2616 21.7428 16.6239 21.2005 17.0807 20.7437C17.5376 20.2869 18.0799 19.9245 18.6767 19.6773C19.2736 19.4301 19.9133 19.3028 20.5593 19.3028C21.2054 19.3028 21.8451 19.4301 22.442 19.6773C23.0388 19.9245 23.5811 20.2869 24.0379 20.7437L24.4249 21.1307L24.8119 20.7437C25.2688 20.2869 25.8111 19.9245 26.4079 19.6773C27.0048 19.4301 27.6445 19.3028 28.2905 19.3028C28.9366 19.3028 29.5763 19.4301 30.1732 19.6773C30.77 19.9245 31.3123 20.2869 31.7691 20.7437C32.226 21.2005 32.5883 21.7428 32.8356 22.3397C33.0828 22.9366 33.21 23.5763 33.21 24.2223C33.21 24.8683 33.0828 25.508 32.8356 26.1049C32.5883 26.7018 32.226 27.2441 31.7691 27.7009L24.4249 35.0451Z" fill="#222D39"/>
<path d="M24.4249 35.0451L17.0807 27.7009C16.6239 27.2441 16.2616 26.7018 16.0143 26.1049C15.7671 25.508 15.6399 24.8683 15.6399 24.2223C15.6399 23.5763 15.7671 22.9366 16.0143 22.3397C16.2616 21.7428 16.6239 21.2005 17.0807 20.7437C17.5376 20.2869 18.0799 19.9245 18.6767 19.6773C19.2736 19.4301 19.9133 19.3028 20.5593 19.3028C21.2054 19.3028 21.8451 19.4301 22.442 19.6773C23.0388 19.9245 23.5811 20.2869 24.0379 20.7437L24.4249 21.1307L24.8119 20.7437C25.2688 20.2869 25.8111 19.9245 26.4079 19.6773C27.0048 19.4301 27.6445 19.3028 28.2905 19.3028C28.9366 19.3028 29.5763 19.4301 30.1732 19.6773C30.77 19.9245 31.3123 20.2869 31.7691 20.7437C32.226 21.2005 32.5883 21.7428 32.8356 22.3397C33.0828 22.9366 33.21 23.5763 33.21 24.2223C33.21 24.8683 33.0828 25.508 32.8356 26.1049C32.5883 26.7018 32.226 27.2441 31.7691 27.7009L24.4249 35.0451Z" fill="#E98862"/>
</svg>
