<svg width="44" height="39" viewBox="0 0 44 39" fill="none" xmlns="http://www.w3.org/2000/svg">
<path d="M35.4042 38.7699H8.06622C7.54833 38.7699 7.05165 38.5642 6.68544 38.198C6.31924 37.8318 6.11351 37.3351 6.11351 36.8172V19.2428H0.255371L20.421 0.910747C20.7805 0.583624 21.2491 0.402344 21.7352 0.402344C22.2213 0.402344 22.6899 0.583624 23.0494 0.910747L43.215 19.2428H37.3569V36.8172C37.3569 37.3351 37.1512 37.8318 36.785 38.198C36.4188 38.5642 35.9221 38.7699 35.4042 38.7699ZM10.0189 34.8645H33.4515V15.644L21.7352 4.99387L10.0189 15.644V34.8645ZM13.9244 27.0537H29.5461V30.9591H13.9244V27.0537Z" fill="#222D39"/>
<path d="M35.4042 38.7699H8.06622C7.54833 38.7699 7.05165 38.5642 6.68544 38.198C6.31924 37.8318 6.11351 37.3351 6.11351 36.8172V19.2428H0.255371L20.421 0.910747C20.7805 0.583624 21.2491 0.402344 21.7352 0.402344C22.2213 0.402344 22.6899 0.583624 23.0494 0.910747L43.215 19.2428H37.3569V36.8172C37.3569 37.3351 37.1512 37.8318 36.785 38.198C36.4188 38.5642 35.9221 38.7699 35.4042 38.7699ZM10.0189 34.8645H33.4515V15.644L21.7352 4.99387L10.0189 15.644V34.8645ZM13.9244 27.0537H29.5461V30.9591H13.9244V27.0537Z" fill="#222D39"/>
<path d="M13.9244 27.0531H29.5461V30.9585H13.9244V27.0531Z" fill="#222D39"/>
<path d="M13.9244 27.0531H29.5461V30.9585H13.9244V27.0531Z" fill="#E98862"/>
</svg>
