<svg width="49" height="44" viewBox="0 0 49 44" fill="none" xmlns="http://www.w3.org/2000/svg">
<path d="M11.6362 39.0575H37.8733V17.5365L24.7548 5.61177L11.6362 17.5365V39.0575ZM40.0598 43.4304H9.4498C8.86993 43.4304 8.3138 43.2 7.90377 42.79C7.49373 42.3799 7.26338 41.8238 7.26338 41.2439V21.5661H0.704102L23.2833 1.03996C23.6859 0.673681 24.2105 0.470703 24.7548 0.470703C25.299 0.470703 25.8237 0.673681 26.2262 1.03996L48.8055 21.5661H42.2462V41.2439C42.2462 41.8238 42.0158 42.3799 41.6058 42.79C41.1958 43.2 40.6396 43.4304 40.0598 43.4304ZM14.9159 25.939H19.2887C19.2887 27.3887 19.8646 28.779 20.8897 29.8041C21.9148 30.8291 23.3051 31.405 24.7548 31.405C26.2045 31.405 27.5948 30.8291 28.6199 29.8041C29.645 28.779 30.2208 27.3887 30.2208 25.939H34.5937C34.5937 28.5484 33.5571 31.051 31.7119 32.8961C29.8668 34.7413 27.3642 35.7779 24.7548 35.7779C22.1453 35.7779 19.6428 34.7413 17.7976 32.8961C15.9525 31.051 14.9159 28.5484 14.9159 25.939Z" fill="#222D39"/>
<path d="M14.9159 25.94H19.2887C19.2887 27.3897 19.8646 28.78 20.8897 29.8051C21.9148 30.8302 23.3051 31.4061 24.7548 31.4061C26.2045 31.4061 27.5948 30.8302 28.6199 29.8051C29.645 28.78 30.2208 27.3897 30.2208 25.94H34.5937C34.5937 28.5495 33.5571 31.052 31.7119 32.8972C29.8668 34.7423 27.3642 35.7789 24.7548 35.7789C22.1453 35.7789 19.6428 34.7423 17.7976 32.8972C15.9525 31.052 14.9159 28.5495 14.9159 25.94Z" fill="#E98862"/>
</svg>
