<svg width="54" height="55" viewBox="0 0 54 55" fill="none" xmlns="http://www.w3.org/2000/svg">
<path d="M8.34302 22.8438V47.4559C8.34302 47.8985 8.51882 48.3229 8.83175 48.6358C9.14467 48.9488 9.56909 49.1246 10.0116 49.1246H20.0234V34.9413C20.0234 34.2774 20.2871 33.6408 20.7565 33.1714C21.2259 32.702 21.8625 32.4383 22.5263 32.4383H30.8694C31.5333 32.4383 32.1699 32.702 32.6393 33.1714C33.1087 33.6408 33.3724 34.2774 33.3724 34.9413V49.1246H43.3841C43.8267 49.1246 44.2511 48.9488 44.564 48.6358C44.8769 48.3229 45.0527 47.8985 45.0527 47.4559V22.8438" stroke="#222D39" stroke-width="3.2302" stroke-linecap="round" stroke-linejoin="round"/>
<path d="M41.7151 19.4014V7.4082H36.7092V14.6041" stroke="#E98862" stroke-width="3.2302" stroke-linecap="round" stroke-linejoin="round"/>
<path d="M50.0584 27.4325L27.8333 6.15752C27.3119 5.60688 26.0928 5.60062 25.5619 6.15752L3.33691 27.4325" stroke="#222D39" stroke-width="3.2302" stroke-linecap="round" stroke-linejoin="round"/>
</svg>
