<svg width="52" height="38" viewBox="0 0 52 38" fill="none" xmlns="http://www.w3.org/2000/svg">
<mask id="mask0_536_1298" style="mask-type:luminance" maskUnits="userSpaceOnUse" x="0" y="0" width="52" height="38">
<path d="M48.2857 0.427734H3.71429C1.66294 0.427734 0 2.09068 0 4.14202V33.8563C0 35.9076 1.66294 37.5706 3.71429 37.5706H48.2857C50.3371 37.5706 52 35.9076 52 33.8563V4.14202C52 2.09068 50.3371 0.427734 48.2857 0.427734Z" fill="white"/>
</mask>
<g mask="url(#mask0_536_1298)">
<path d="M48.2857 0.427734H3.71429C1.66294 0.427734 0 2.09068 0 4.14202V33.8563C0 35.9076 1.66294 37.5706 3.71429 37.5706H48.2857C50.3371 37.5706 52 35.9076 52 33.8563V4.14202C52 2.09068 50.3371 0.427734 48.2857 0.427734Z" fill="white"/>
<mask id="mask1_536_1298" style="mask-type:alpha" maskUnits="userSpaceOnUse" x="0" y="0" width="52" height="38">
<path d="M48.2857 0.427734H3.71429C1.66294 0.427734 0 2.09068 0 4.14202V33.8563C0 35.9076 1.66294 37.5706 3.71429 37.5706H48.2857C50.3371 37.5706 52 35.9076 52 33.8563V4.14202C52 2.09068 50.3371 0.427734 48.2857 0.427734Z" fill="white"/>
</mask>
<g mask="url(#mask1_536_1298)">
<path fill-rule="evenodd" clip-rule="evenodd" d="M52 0.427734H0V2.90392H52V0.427734ZM52 5.38012H0V7.85631H52V5.38012ZM0 10.3325H52V12.8087H0V10.3325ZM52 15.2849H0V17.7611H52V15.2849ZM0 20.2373H52V22.7134H0V20.2373ZM52 25.1896H0V27.6659H52V25.1896ZM0 30.142H52V32.6181H0V30.142ZM52 35.0945H0V37.5706H52V35.0945Z" fill="#D02F44"/>
<path d="M22.2857 0.427734H0V17.7611H22.2857V0.427734Z" fill="#46467F"/>
<g filter="url(#filter0_d_536_1298)">
<path fill-rule="evenodd" clip-rule="evenodd" d="M4.95277 4.14238C4.95277 4.82616 4.39845 5.38048 3.71466 5.38048C3.03088 5.38048 2.47656 4.82616 2.47656 4.14238C2.47656 3.45862 3.03088 2.9043 3.71466 2.9043C4.39845 2.9043 4.95277 3.45862 4.95277 4.14238ZM9.90513 4.14238C9.90513 4.82616 9.35083 5.38048 8.66705 5.38048C7.98327 5.38048 7.42895 4.82616 7.42895 4.14238C7.42895 3.45862 7.98327 2.9043 8.66705 2.9043C9.35083 2.9043 9.90513 3.45862 9.90513 4.14238ZM13.6194 5.38048C14.3032 5.38048 14.8575 4.82616 14.8575 4.14238C14.8575 3.45862 14.3032 2.9043 13.6194 2.9043C12.9356 2.9043 12.3813 3.45862 12.3813 4.14238C12.3813 4.82616 12.9356 5.38048 13.6194 5.38048ZM19.8098 4.14238C19.8098 4.82616 19.2556 5.38048 18.5718 5.38048C17.888 5.38048 17.3337 4.82616 17.3337 4.14238C17.3337 3.45862 17.888 2.9043 18.5718 2.9043C19.2556 2.9043 19.8098 3.45862 19.8098 4.14238ZM6.19085 7.85667C6.87463 7.85667 7.42895 7.30236 7.42895 6.61858C7.42895 5.9348 6.87463 5.38048 6.19085 5.38048C5.50707 5.38048 4.95277 5.9348 4.95277 6.61858C4.95277 7.30236 5.50707 7.85667 6.19085 7.85667ZM12.3813 6.61858C12.3813 7.30236 11.827 7.85667 11.1432 7.85667C10.4595 7.85667 9.90513 7.30236 9.90513 6.61858C9.90513 5.9348 10.4595 5.38048 11.1432 5.38048C11.827 5.38048 12.3813 5.9348 12.3813 6.61858ZM16.0956 7.85667C16.7794 7.85667 17.3337 7.30236 17.3337 6.61858C17.3337 5.9348 16.7794 5.38048 16.0956 5.38048C15.4118 5.38048 14.8575 5.9348 14.8575 6.61858C14.8575 7.30236 15.4118 7.85667 16.0956 7.85667ZM19.8098 9.09477C19.8098 9.77855 19.2556 10.3329 18.5718 10.3329C17.888 10.3329 17.3337 9.77855 17.3337 9.09477C17.3337 8.41098 17.888 7.85667 18.5718 7.85667C19.2556 7.85667 19.8098 8.41098 19.8098 9.09477ZM13.6194 10.3329C14.3032 10.3329 14.8575 9.77855 14.8575 9.09477C14.8575 8.41098 14.3032 7.85667 13.6194 7.85667C12.9356 7.85667 12.3813 8.41098 12.3813 9.09477C12.3813 9.77855 12.9356 10.3329 13.6194 10.3329ZM9.90513 9.09477C9.90513 9.77855 9.35083 10.3329 8.66705 10.3329C7.98327 10.3329 7.42895 9.77855 7.42895 9.09477C7.42895 8.41098 7.98327 7.85667 8.66705 7.85667C9.35083 7.85667 9.90513 8.41098 9.90513 9.09477ZM3.71466 10.3329C4.39845 10.3329 4.95277 9.77855 4.95277 9.09477C4.95277 8.41098 4.39845 7.85667 3.71466 7.85667C3.03088 7.85667 2.47656 8.41098 2.47656 9.09477C2.47656 9.77855 3.03088 10.3329 3.71466 10.3329ZM7.42895 11.571C7.42895 12.2548 6.87463 12.8091 6.19085 12.8091C5.50707 12.8091 4.95277 12.2548 4.95277 11.571C4.95277 10.8872 5.50707 10.3329 6.19085 10.3329C6.87463 10.3329 7.42895 10.8872 7.42895 11.571ZM11.1432 12.8091C11.827 12.8091 12.3813 12.2548 12.3813 11.571C12.3813 10.8872 11.827 10.3329 11.1432 10.3329C10.4595 10.3329 9.90513 10.8872 9.90513 11.571C9.90513 12.2548 10.4595 12.8091 11.1432 12.8091ZM17.3337 11.571C17.3337 12.2548 16.7794 12.8091 16.0956 12.8091C15.4118 12.8091 14.8575 12.2548 14.8575 11.571C14.8575 10.8872 15.4118 10.3329 16.0956 10.3329C16.7794 10.3329 17.3337 10.8872 17.3337 11.571ZM18.5718 15.2853C19.2556 15.2853 19.8098 14.7309 19.8098 14.0472C19.8098 13.3634 19.2556 12.8091 18.5718 12.8091C17.888 12.8091 17.3337 13.3634 17.3337 14.0472C17.3337 14.7309 17.888 15.2853 18.5718 15.2853ZM14.8575 14.0472C14.8575 14.7309 14.3032 15.2853 13.6194 15.2853C12.9356 15.2853 12.3813 14.7309 12.3813 14.0472C12.3813 13.3634 12.9356 12.8091 13.6194 12.8091C14.3032 12.8091 14.8575 13.3634 14.8575 14.0472ZM8.66705 15.2853C9.35083 15.2853 9.90513 14.7309 9.90513 14.0472C9.90513 13.3634 9.35083 12.8091 8.66705 12.8091C7.98327 12.8091 7.42895 13.3634 7.42895 14.0472C7.42895 14.7309 7.98327 15.2853 8.66705 15.2853ZM4.95277 14.0472C4.95277 14.7309 4.39845 15.2853 3.71466 15.2853C3.03088 15.2853 2.47656 14.7309 2.47656 14.0472C2.47656 13.3634 3.03088 12.8091 3.71466 12.8091C4.39845 12.8091 4.95277 13.3634 4.95277 14.0472Z" fill="url(#paint0_linear_536_1298)"/>
</g>
</g>
</g>
<defs>
<filter id="filter0_d_536_1298" x="2.47656" y="2.9043" width="17.333" height="40.9523" filterUnits="userSpaceOnUse" color-interpolation-filters="sRGB">
<feFlood flood-opacity="0" result="BackgroundImageFix"/>
<feColorMatrix in="SourceAlpha" type="matrix" values="0 0 0 0 0 0 0 0 0 0 0 0 0 0 0 0 0 0 127 0" result="hardAlpha"/>
<feOffset dy="28.5714"/>
<feColorMatrix type="matrix" values="0 0 0 0 0 0 0 0 0 0 0 0 0 0 0 0 0 0 0.06 0"/>
<feBlend mode="normal" in2="BackgroundImageFix" result="effect1_dropShadow_536_1298"/>
<feBlend mode="normal" in="SourceGraphic" in2="effect1_dropShadow_536_1298" result="shape"/>
</filter>
<linearGradient id="paint0_linear_536_1298" x1="2.47656" y1="2.9043" x2="2.47656" y2="15.2852" gradientUnits="userSpaceOnUse">
<stop stop-color="white"/>
<stop offset="1" stop-color="#F0F0F0"/>
</linearGradient>
</defs>
</svg>
